<?xml version="1.0" encoding="utf-8"?>
<!-- Generator: Adobe Illustrator 16.0.0, SVG Export Plug-In . SVG Version: 6.00 Build 0)  -->
<!DOCTYPE svg PUBLIC "-//W3C//DTD SVG 1.1//EN" "http://www.w3.org/Graphics/SVG/1.1/DTD/svg11.dtd">
<svg version="1.1" id="Layer_1" xmlns="http://www.w3.org/2000/svg" xmlns:xlink="http://www.w3.org/1999/xlink" x="0px" y="0px"
	 width="206.546px" height="41.373px" viewBox="0 0 206.546 41.373" enable-background="new 0 0 206.546 41.373"
	 xml:space="preserve">
<g>
	<polygon fill="#E7E1E6" points="203.164,7.572 203.164,5.671 202.39,5.671 202.39,5.531 204.082,5.531 204.082,5.671 
		203.308,5.671 203.308,7.572 	"/>
	<g>
		<path fill="#E7E1E6" d="M204.366,5.701c0-0.11,0.069-0.192,0.175-0.192c0.106,0,0.154,0.075,0.202,0.201l0.626,1.661
			c0.009,0.023,0.019,0.064,0.045,0.064s0.037-0.041,0.046-0.064l0.626-1.661c0.048-0.125,0.095-0.201,0.201-0.201
			s0.175,0.082,0.175,0.192v1.871h-0.143V5.701c0-0.041-0.024-0.052-0.037-0.052c-0.016,0-0.043,0.035-0.051,0.059l-0.629,1.667
			c-0.048,0.125-0.094,0.221-0.188,0.221s-0.14-0.096-0.188-0.221l-0.63-1.667c-0.008-0.023-0.034-0.059-0.051-0.059
			c-0.013,0-0.037,0.012-0.037,0.052v1.871h-0.143V5.701z"/>
		<rect x="79.291" y="9.979" fill="#3B3A3E" width="5.699" height="21.58"/>
		<path fill="#3B3A3E" d="M101.601,31.558V18.571c0-1.61-0.313-2.695-0.928-3.284c-0.52-0.5-1.523-0.68-3.353-0.68h-4.828v16.952
			h-5.748V9.979h11.032c3.4,0,5.736,0.596,7.098,1.792c1.421,1.25,2.134,3.247,2.134,6.075v13.712H101.601z"/>
		<rect x="144.369" y="9.979" fill="#3B3A3E" width="5.748" height="21.58"/>
		<path fill="#3B3A3E" d="M166.288,31.558V18.571c0-1.791-0.236-2.75-0.793-3.284c-0.527-0.506-1.46-0.68-3.219-0.68h-5.146v16.952
			h-5.261V9.979h10.861c3.357,0,5.561,0.579,6.939,1.792c1.351,1.188,1.977,3.128,1.977,6.075v13.712H166.288z"/>
		<path fill="#3B3A3E" d="M137.46,31.558c-2.213,0-3.722-0.521-4.782-1.626c-1.107-1.153-1.606-2.72-1.606-4.918V14.167h-13.004
			c-1.75,0-2.871,0.138-3.426,0.46c-0.581,0.338-0.877,0.926-0.877,1.769c0,0.773,0.266,1.408,0.765,1.77
			c0.374,0.271,1.069,0.629,2.253,0.629h5.346c2.484,0,4.266,0.468,5.447,1.517c1.264,1.121,1.853,2.588,1.853,4.66
			c0,1.992-0.541,3.574-1.655,4.842c-1.045,1.193-2.392,1.744-4.236,1.744h-14.921v-4.092h12.124c0.961,0,1.933-0.079,2.537-0.493
			c0.582-0.397,0.853-0.966,0.853-1.765c0-0.82-0.29-1.416-0.861-1.811c-0.526-0.362-1.329-0.512-2.528-0.512h-5.096
			c-2.941,0-4.955-0.48-5.988-1.379c-1.009-0.877-1.521-2.5-1.521-4.799c0-2.338,0.606-4.029,1.853-5.128
			c1.208-1.064,3.112-1.602,5.822-1.602h15.262V5.497h5.406v4.481h6.139v4.189h-6.139v8.982c0,1.729,0.266,2.932,0.861,3.607
			c0.623,0.707,1.637,1.049,3.084,1.049h2.193v3.752H137.46z"/>
		<path fill="#00AEEF" d="M47.244,26.947h-0.098c-3.331,0-6.05-2.605-6.189-5.93l-0.044-0.561c-0.031-1.343-0.313-2.651-0.834-3.885
			c-0.536-1.267-1.303-2.404-2.277-3.38c-0.976-0.975-2.113-1.741-3.381-2.277c-1.313-0.556-2.706-0.838-4.141-0.838h-7.545v4.443
			h7.447v-0.003h0.098c3.332,0,6.051,2.607,6.189,5.931l0.045,0.56c0.031,1.344,0.313,2.65,0.834,3.885
			c0.535,1.268,1.302,2.405,2.277,3.381c0.975,0.976,2.112,1.742,3.379,2.278c1.237,0.522,2.631,0.788,4.142,0.788h7.401v-4.394
			L47.244,26.947L47.244,26.947z"/>
		<path fill="#00AEEF" d="M42.3,20.611l0.044,0.568c0.021,0.51,0.122,1.009,0.298,1.483h11.906v-4.234H42.041
			C42.193,19.144,42.28,19.877,42.3,20.611"/>
		<path fill="#00AEEF" d="M35.128,21.3l-0.045-0.568c-0.033-0.817-0.273-1.612-0.695-2.303H22.735v4.234h12.506
			C35.177,22.21,35.14,21.752,35.128,21.3"/>
		<path fill="#00AEEF" d="M35.564,23.986c-1.124,1.833-3.126,2.961-5.284,2.961l-0.098-0.001h-7.302v-0.001h-1.893V3.188L15.691,0
			v6.132v0.097v3.847h-4.95c-2.112,0-3.837,0.255-5.125,0.759c-1.284,0.502-2.398,1.345-3.311,2.505
			c-0.771,0.968-1.354,2.051-1.733,3.221C0.192,17.732,0,19.037,0,20.439c0,3.419,0.921,6.119,2.737,8.027
			c1.814,1.906,4.381,2.873,7.626,2.873h10.171l0,0h2.347l0,0h7.399c1.512,0,2.904-0.266,4.141-0.788
			c1.26-0.533,2.389-1.292,3.36-2.259c-0.7-0.867-1.275-1.828-1.711-2.859C35.872,24.964,35.702,24.479,35.564,23.986 M15.691,26.94
			h-3.976c-2.165,0-3.718-0.468-4.614-1.392c-0.896-0.923-1.351-2.5-1.351-4.691c0-2.257,0.495-3.896,1.471-4.872
			c0.977-0.976,2.643-1.47,4.951-1.47h3.519V26.94z"/>
		<path fill="#00AEEF" d="M74.724,12.949c-1.814-1.906-4.381-2.873-7.625-2.873h-10.68l0,0h-2.347l0,0h-6.926
			c-1.435,0-2.827,0.282-4.142,0.838c-1.258,0.532-2.388,1.292-3.358,2.257c0.7,0.868,1.274,1.83,1.71,2.86
			c0.199,0.469,0.369,0.955,0.506,1.447c1.123-1.833,3.127-2.962,5.284-2.962l0.098,0.003h6.828v0h2.205v26.853l5.473-3.284
			l0.001-6.749h4.97c2.125,0,3.853-0.256,5.135-0.76c1.276-0.5,2.387-1.344,3.3-2.505c0.771-0.968,1.355-2.05,1.734-3.221
			c0.38-1.171,0.572-2.476,0.572-3.878C77.462,17.558,76.54,14.857,74.724,12.949 M70.25,25.459c-0.969,0.983-2.632,1.48-4.941,1.48
			h-3.558V14.515h3.995c2.178,0,3.733,0.462,4.624,1.372c0.889,0.91,1.34,2.482,1.34,4.672C71.71,22.829,71.219,24.477,70.25,25.459
			"/>
		<path fill="#3B3A3E" d="M199.921,5.474h-5.357v4.481h-9.834c-2.04,0-3.561,0.116-4.837,0.524
			c-1.288,0.411-2.423,1.105-3.372,2.014c-1.025,0.985-1.831,2.224-2.396,3.681c-0.569,1.47-0.857,3.07-0.857,4.758
			c0,1.61,0.292,3.153,0.864,4.589c0.573,1.436,1.375,2.667,2.383,3.661c0.843,0.82,1.867,1.393,3.322,1.861
			c1.273,0.412,2.894,0.49,4.936,0.49h7.695v-4.627h-5.955c-1.629,0-2.609-0.064-3.18-0.172c-0.629-0.119-1.434-0.299-1.895-0.571
			c-0.932-0.573-1.352-0.812-1.795-1.74c-0.441-0.924-0.664-2.096-0.664-3.489c0-2.475,0.554-4.233,1.646-5.232
			c1.121-1.025,3.157-1.12,5.888-1.12h8.051v10.431c0,2.168,0.49,3.724,1.626,4.907c1.06,1.104,2.562,1.613,4.804,1.613h5.114v-3.75
			h-2.153c-1.453,0-2.514-0.343-3.128-1.039c-0.614-0.697-0.905-1.923-0.905-3.596v-8.567h6.625V9.955h-6.625V5.474z"/>
		<polygon fill="#3B3A3E" points="203.164,7.572 203.164,5.671 202.39,5.671 202.39,5.531 204.082,5.531 204.082,5.671 
			203.308,5.671 203.308,7.572 		"/>
		<path fill="#3B3A3E" d="M204.366,5.701c0-0.11,0.069-0.192,0.175-0.192c0.106,0,0.154,0.075,0.202,0.201l0.626,1.661
			c0.009,0.023,0.019,0.064,0.045,0.064s0.037-0.041,0.046-0.064l0.626-1.661c0.048-0.125,0.095-0.201,0.201-0.201
			s0.175,0.082,0.175,0.192v1.871h-0.143V5.701c0-0.041-0.024-0.052-0.037-0.052c-0.016,0-0.043,0.035-0.051,0.059l-0.629,1.667
			c-0.048,0.125-0.094,0.221-0.188,0.221s-0.14-0.096-0.188-0.221l-0.63-1.667c-0.008-0.023-0.034-0.059-0.051-0.059
			c-0.013,0-0.037,0.012-0.037,0.052v1.871h-0.143V5.701z"/>
	</g>
</g>
</svg>
