<?xml version="1.0" encoding="utf-8"?>
<!-- Generator: Adobe Illustrator 16.0.0, SVG Export Plug-In . SVG Version: 6.00 Build 0)  -->
<!DOCTYPE svg PUBLIC "-//W3C//DTD SVG 1.1//EN" "http://www.w3.org/Graphics/SVG/1.1/DTD/svg11.dtd">
<svg version="1.1" id="Layer_1" xmlns="http://www.w3.org/2000/svg" xmlns:xlink="http://www.w3.org/1999/xlink" x="0px" y="0px"
	 width="256.031px" height="66.419px" viewBox="0 0 256.031 66.419" enable-background="new 0 0 256.031 66.419"
	 xml:space="preserve">
<g>
	<g>
		<path fill="#FFFFFF" d="M75.847,43.26h-0.16c-5.346,0-9.711-4.183-9.934-9.52l-0.072-0.9c-0.05-2.157-0.502-4.256-1.339-6.237
			c-0.859-2.034-2.092-3.858-3.656-5.426c-1.565-1.566-3.393-2.795-5.428-3.656c-2.11-0.894-4.343-1.345-6.647-1.345H36.499v7.134
			h11.956v-0.005h0.157c5.349,0,9.714,4.186,9.937,9.521l0.072,0.9c0.05,2.157,0.501,4.258,1.339,6.236
			c0.859,2.038,2.088,3.863,3.656,5.428c1.564,1.567,3.393,2.797,5.424,3.659c1.988,0.841,4.224,1.264,6.647,1.264h11.884V43.26
			H75.847L75.847,43.26z"/>
		<path fill="#FFFFFF" d="M67.908,33.088l0.072,0.915c0.031,0.815,0.194,1.618,0.477,2.38H84.36v-6.797H67.494
			C67.738,30.733,67.876,31.912,67.908,33.088"/>
		<path fill="#FFFFFF" d="M56.394,34.194l-0.072-0.912c-0.053-1.311-0.439-2.587-1.116-3.696H39.709v6.797h16.867
			C56.472,35.655,56.413,34.922,56.394,34.194"/>
		<path fill="#FFFFFF" d="M25.191,43.25h-6.384c-3.477,0-5.967-0.752-7.406-2.235c-1.439-1.48-2.169-4.014-2.169-7.532
			c0-3.622,0.796-6.253,2.361-7.821c1.568-1.568,4.243-2.361,7.949-2.361h5.65V43.25z M57.096,38.506
			c-1.806,2.944-5.02,4.754-8.485,4.754h-0.157H36.73v-0.003h-3.035V5.117L25.191,0v9.844v0.154v6.177h-7.949
			c-3.393,0-6.158,0.411-8.228,1.22c-2.06,0.806-3.851,2.158-5.314,4.021c-1.239,1.554-2.173,3.292-2.781,5.171
			C0.307,28.467,0,30.563,0,32.812c0,5.49,1.477,9.824,4.393,12.888c2.913,3.063,7.033,4.612,12.245,4.612h16.327h3.766h11.881
			c2.427,0,4.663-0.423,6.647-1.264c2.022-0.856,3.835-2.076,5.396-3.625c-1.126-1.396-2.051-2.938-2.747-4.594
			C57.588,40.077,57.315,39.3,57.096,38.506"/>
		<path fill="#FFFFFF" d="M112.778,40.873c-1.552,1.577-4.224,2.377-7.93,2.377h-5.713V23.302h6.412c3.5,0,5.996,0.742,7.425,2.201
			c1.427,1.459,2.151,3.984,2.151,7.502C115.124,36.649,114.336,39.296,112.778,40.873 M119.962,20.788
			c-2.913-3.061-7.033-4.613-12.242-4.613H90.575h-3.766H75.69c-2.305,0-4.541,0.453-6.651,1.345
			c-2.019,0.854-3.832,2.073-5.39,3.624c1.123,1.394,2.044,2.938,2.744,4.592c0.32,0.753,0.593,1.533,0.812,2.324
			c1.803-2.941,5.021-4.755,8.485-4.755l0.157,0.005h10.962v0.001h3.54v43.109l8.783-5.271l0.003-10.837h7.98
			c3.412,0,6.184-0.411,8.244-1.22c2.047-0.803,3.832-2.154,5.296-4.02c1.239-1.553,2.176-3.293,2.785-5.171
			c0.611-1.882,0.918-3.976,0.918-6.228C124.358,28.188,122.878,23.853,119.962,20.788"/>
	</g>
	<g>
		<path fill="#FFFFFF" d="M141.608,4.171v11.135h10.151c1.049,0,2.129,0.066,3.242,0.198c1.113,0.13,2.204,0.392,3.275,0.785
			c1.069,0.394,2.085,0.961,3.045,1.703c0.961,0.743,1.813,1.747,2.556,3.014c0.959,1.616,1.581,3.438,1.865,5.468
			s0.427,4.159,0.427,6.385c0,2.84-0.196,5.165-0.59,6.978c-0.394,1.812-0.939,3.306-1.637,4.485
			c-0.699,1.223-1.53,2.205-2.489,2.947c-0.962,0.743-1.976,1.321-3.047,1.735c-1.069,0.415-2.16,0.688-3.273,0.82
			c-1.114,0.13-2.173,0.195-3.178,0.195h-10.938c-1.005,0-1.977-0.065-2.914-0.195c-0.941-0.132-1.801-0.567-2.588-1.311
			c-0.698-0.655-1.135-1.364-1.309-2.13c-0.176-0.763-0.262-1.494-0.262-2.193V4.171H141.608z M141.608,41.243
			c0,0.35,0.01,0.732,0.033,1.146c0.021,0.415,0.185,0.798,0.49,1.146c0.262,0.262,0.579,0.427,0.95,0.491
			c0.37,0.065,0.753,0.099,1.146,0.099h5.567c0.523,0,1.112-0.022,1.769-0.065c0.655-0.043,1.309-0.186,1.964-0.426
			c0.655-0.239,1.298-0.589,1.932-1.049c0.634-0.457,1.168-1.122,1.605-1.997c0.218-0.479,0.469-1.254,0.753-2.325
			c0.283-1.069,0.426-2.761,0.426-5.076c0-2.75-0.163-4.736-0.49-5.959c-0.328-1.223-0.557-1.966-0.688-2.228
			c-0.394-0.786-0.862-1.43-1.408-1.932c-0.547-0.501-1.137-0.895-1.769-1.179c-0.633-0.284-1.288-0.469-1.964-0.557
			c-0.679-0.087-1.3-0.131-1.867-0.131h-8.449V41.243z"/>
		<path fill="#FFFFFF" d="M170.492,4.171h7.663V50.02h-7.663V4.171z"/>
		<path fill="#FFFFFF" d="M204.354,14.978c1.223,0.045,2.468,0.187,3.734,0.426c1.266,0.24,2.488,0.611,3.667,1.113
			c1.179,0.503,2.248,1.19,3.209,2.063c1.005,0.917,1.802,1.997,2.392,3.242c0.589,1.245,1.036,2.5,1.342,3.766
			c0.306,1.267,0.502,2.512,0.59,3.734c0.087,1.223,0.131,2.292,0.131,3.209c0,3.711-0.426,6.691-1.277,8.94
			s-1.909,3.985-3.177,5.206c-0.917,0.875-1.975,1.563-3.176,2.063c-1.201,0.503-2.446,0.875-3.733,1.114
			c-1.288,0.238-2.544,0.393-3.766,0.458c-1.223,0.066-2.338,0.099-3.341,0.099c-1.048,0-2.184-0.032-3.405-0.099
			c-1.223-0.065-2.468-0.22-3.734-0.458c-1.267-0.239-2.488-0.611-3.667-1.114c-1.18-0.5-2.25-1.188-3.21-2.063
			c-1.049-0.959-1.867-2.051-2.456-3.273c-0.59-1.223-1.027-2.479-1.31-3.768c-0.285-1.287-0.471-2.531-0.558-3.732
			c-0.088-1.201-0.131-2.237-0.131-3.11c0-0.962,0.043-2.075,0.131-3.341c0.087-1.265,0.283-2.543,0.589-3.832
			c0.306-1.288,0.754-2.554,1.344-3.799c0.59-1.245,1.386-2.325,2.391-3.242c0.96-0.874,2.03-1.56,3.21-2.063
			c1.179-0.502,2.4-0.873,3.667-1.113c1.267-0.24,2.512-0.381,3.734-0.426c1.222-0.042,2.357-0.064,3.405-0.064
			C201.995,14.914,203.131,14.936,204.354,14.978z M190.698,37.313c0.195,1.617,0.84,3.058,1.931,4.324
			c1.136,1.267,2.457,2.063,3.964,2.39c1.507,0.327,2.957,0.492,4.355,0.492c1.44,0,2.893-0.165,4.355-0.492
			c1.463-0.326,2.761-1.123,3.897-2.39c1.135-1.267,1.801-2.686,1.997-4.258s0.295-3.122,0.295-4.65c0-0.655,0-1.353,0-2.096
			c0-0.785-0.065-1.593-0.196-2.424c-0.132-0.828-0.351-1.647-0.655-2.455c-0.306-0.807-0.765-1.54-1.375-2.195
			c-0.568-0.611-1.191-1.102-1.867-1.474c-0.677-0.37-1.375-0.655-2.096-0.852c-0.72-0.196-1.452-0.316-2.193-0.36
			c-0.743-0.042-1.465-0.064-2.162-0.064c-0.611,0-1.3,0.022-2.063,0.064c-0.765,0.044-1.518,0.165-2.259,0.36
			c-0.743,0.196-1.474,0.481-2.195,0.852c-0.72,0.372-1.342,0.862-1.865,1.474c-0.525,0.613-0.941,1.333-1.245,2.162
			c-0.306,0.829-0.523,1.669-0.655,2.521c-0.132,0.851-0.207,1.671-0.229,2.457c-0.023,0.785-0.032,1.463-0.032,2.03
			C190.403,34.169,190.502,35.698,190.698,37.313z"/>
		<path fill="#FFFFFF" d="M225.247,55.587h14.606c0.829,0,1.878-0.076,3.145-0.229c1.266-0.153,2.358-0.601,3.275-1.344
			c1.134-1.005,1.811-2.336,2.03-3.995H235.99c-0.917,0-1.846-0.042-2.784-0.131c-0.939-0.087-1.868-0.271-2.783-0.557
			c-0.917-0.282-1.802-0.72-2.652-1.31c-0.854-0.59-1.605-1.408-2.261-2.457c-1.791-2.793-2.687-7.27-2.687-13.426
			c0-2.752,0.23-5.196,0.688-7.336c0.46-2.138,1.452-4.039,2.98-5.699c0.829-0.916,1.681-1.626,2.554-2.127
			c0.874-0.502,1.769-0.874,2.686-1.115c0.918-0.238,1.835-0.392,2.752-0.458c0.917-0.065,1.811-0.099,2.686-0.099h11.199
			c1.005,0,1.986,0.066,2.947,0.198c0.961,0.13,1.856,0.523,2.686,1.179c0.873,0.743,1.43,1.582,1.67,2.521
			c0.239,0.939,0.36,1.779,0.36,2.521V46.09c0,2.228-0.187,4.3-0.557,6.222c-0.371,1.921-1.124,3.581-2.259,4.979
			c-0.786,0.961-1.727,1.713-2.817,2.261c-1.092,0.544-2.185,0.959-3.273,1.243c-1.093,0.283-2.13,0.469-3.112,0.557
			c-0.981,0.088-1.779,0.132-2.391,0.132h-16.375V55.587z M248.368,23.952c0-0.48-0.056-0.896-0.163-1.245
			c-0.11-0.348-0.383-0.675-0.818-0.983c-0.352-0.218-0.688-0.359-1.017-0.425c-0.327-0.066-0.666-0.099-1.014-0.099h-6.551
			c-1.267,0-2.424,0.187-3.471,0.557c-1.049,0.372-1.879,0.908-2.49,1.605c-0.523,0.611-0.928,1.365-1.212,2.259
			c-0.283,0.895-0.49,1.801-0.62,2.718c-0.132,0.917-0.209,1.779-0.23,2.587c-0.022,0.809-0.033,1.408-0.033,1.801
			c0,1.572,0.065,2.893,0.197,3.962c0.13,1.071,0.295,1.966,0.491,2.686c0.195,0.722,0.402,1.3,0.622,1.735
			c0.218,0.438,0.436,0.766,0.655,0.983c0.873,1.005,1.898,1.595,3.078,1.769c1.179,0.176,2.336,0.262,3.471,0.262h9.104V23.952z"/>
	</g>
</g>
</svg>
